M48
; DRILL file {KiCad (6.0.5)} date Thu Dec 22 23:21:59 2022
; FORMAT={-:-/ absolute / inch / decimal}
; #@! TF.CreationDate,2022-12-22T23:21:59-06:00
; #@! TF.GenerationSoftware,Kicad,Pcbnew,(6.0.5)
; #@! TF.FileFunction,Plated,1,2,PTH
FMAT,2
INCH
; #@! TA.AperFunction,Plated,PTH,ComponentDrill
T1C0.0217
; #@! TA.AperFunction,Plated,PTH,ComponentDrill
T2C0.0300
; #@! TA.AperFunction,Plated,PTH,ComponentDrill
T3C0.0315
; #@! TA.AperFunction,Plated,PTH,ComponentDrill
T4C0.0354
; #@! TA.AperFunction,Plated,PTH,ComponentDrill
T5C0.0461
; #@! TA.AperFunction,Plated,PTH,ComponentDrill
T6C0.0591
%
G90
G05
T1
X6.6015Y-2.7469
X6.6515Y-2.7469
X6.7015Y-2.7469
T2
X5.7193Y-2.6774
X5.7193Y-2.9774
X5.8193Y-2.6774
X5.8193Y-2.9774
X5.9193Y-2.6774
X5.9193Y-2.9774
X6.0193Y-2.6774
X6.0193Y-2.9774
T3
X5.1629Y-3.6488
X5.1629Y-3.8083
X5.4629Y-3.6488
X5.4629Y-3.8083
X5.5869Y-3.6488
X5.6893Y-3.1067
X5.6893Y-3.2661
X5.6893Y-3.4256
X5.8869Y-3.6488
X5.9893Y-3.1067
X5.9893Y-3.2661
X5.9893Y-3.4256
X6.1444Y-3.2252
X6.1546Y-2.7075
X6.2033Y-2.9417
X6.2231Y-3.2252
X6.3017Y-2.9417
X6.4546Y-2.7075
T4
X4.6063Y-3.6772
X4.7047Y-3.6772
X4.8031Y-3.6772
X6.0149Y-3.6146
X6.1149Y-3.6146
X6.3783Y-3.2055
X6.4783Y-3.2055
T5
X4.7598Y-3.0984
T6
X5.5472Y-3.0984
T0
M30
