%TF.GenerationSoftware,KiCad,Pcbnew,(6.0.5)*%
%TF.CreationDate,2022-12-22T23:21:59-06:00*%
%TF.ProjectId,555_Badge,3535355f-4261-4646-9765-2e6b69636164,V1*%
%TF.SameCoordinates,Original*%
%TF.FileFunction,Soldermask,Bot*%
%TF.FilePolarity,Negative*%
%FSLAX46Y46*%
G04 Gerber Fmt 4.6, Leading zero omitted, Abs format (unit mm)*
G04 Created by KiCad (PCBNEW (6.0.5)) date 2022-12-22 23:21:59*
%MOMM*%
%LPD*%
G01*
G04 APERTURE LIST*
%ADD10R,1.600000X1.600000*%
%ADD11C,1.600000*%
%ADD12R,2.170000X2.170000*%
%ADD13C,2.500000*%
%ADD14R,1.900000X1.900000*%
%ADD15C,1.900000*%
%ADD16R,1.000000X1.500000*%
%ADD17O,1.000000X1.500000*%
%ADD18O,1.600000X1.600000*%
%ADD19C,1.524000*%
%ADD20R,1.800000X1.800000*%
%ADD21C,1.800000*%
G04 APERTURE END LIST*
D10*
%TO.C,C1*%
X157562841Y-74720000D03*
D11*
X160062841Y-74720000D03*
%TD*%
D12*
%TO.C,BAT1*%
X120900000Y-78700000D03*
D13*
X140900000Y-78700000D03*
%TD*%
D14*
%TO.C,S1*%
X117000000Y-93400000D03*
D15*
X119500000Y-93400000D03*
X122000000Y-93400000D03*
%TD*%
D16*
%TO.C,Q1*%
X167677600Y-69770000D03*
D17*
X168947600Y-69770000D03*
X170217600Y-69770000D03*
%TD*%
D11*
%TO.C,R2*%
X131137600Y-96730000D03*
D18*
X138757600Y-96730000D03*
%TD*%
D19*
%TO.C,U1*%
X145270600Y-75627000D03*
X147810600Y-75627000D03*
X150350600Y-75627000D03*
X152890600Y-75627000D03*
X152890600Y-68007000D03*
X150350600Y-68007000D03*
X147810600Y-68007000D03*
X145270600Y-68007000D03*
%TD*%
D20*
%TO.C,D1*%
X152777600Y-91810000D03*
D21*
X155317600Y-91810000D03*
%TD*%
D10*
%TO.C,C2*%
X156067375Y-81920000D03*
D11*
X158067375Y-81920000D03*
%TD*%
%TO.C,R5*%
X144507600Y-78910000D03*
D18*
X152127600Y-78910000D03*
%TD*%
D11*
%TO.C,R7*%
X156327600Y-68770000D03*
D18*
X163947600Y-68770000D03*
%TD*%
D11*
%TO.C,R1*%
X141907600Y-92680000D03*
D18*
X149527600Y-92680000D03*
%TD*%
D11*
%TO.C,R6*%
X144507600Y-87010000D03*
D18*
X152127600Y-87010000D03*
%TD*%
D20*
%TO.C,D2*%
X162007600Y-81420000D03*
D21*
X164547600Y-81420000D03*
%TD*%
D11*
%TO.C,R3*%
X131137600Y-92680000D03*
D18*
X138757600Y-92680000D03*
%TD*%
D11*
%TO.C,R4*%
X144507600Y-82960000D03*
D18*
X152127600Y-82960000D03*
%TD*%
M02*
