%TF.GenerationSoftware,KiCad,Pcbnew,(6.0.5)*%
%TF.CreationDate,2022-12-22T23:21:59-06:00*%
%TF.ProjectId,555_Badge,3535355f-4261-4646-9765-2e6b69636164,V1*%
%TF.SameCoordinates,Original*%
%TF.FileFunction,Legend,Top*%
%TF.FilePolarity,Positive*%
%FSLAX46Y46*%
G04 Gerber Fmt 4.6, Leading zero omitted, Abs format (unit mm)*
G04 Created by KiCad (PCBNEW (6.0.5)) date 2022-12-22 23:21:59*
%MOMM*%
%LPD*%
G01*
G04 APERTURE LIST*
%ADD10C,0.150000*%
%ADD11C,0.120000*%
%ADD12C,0.100000*%
%ADD13C,0.203200*%
%ADD14C,0.314000*%
%ADD15R,1.600000X1.600000*%
%ADD16C,1.600000*%
%ADD17R,2.170000X2.170000*%
%ADD18C,2.500000*%
%ADD19R,1.900000X1.900000*%
%ADD20C,1.900000*%
%ADD21R,1.000000X1.500000*%
%ADD22O,1.000000X1.500000*%
%ADD23O,1.600000X1.600000*%
%ADD24C,1.524000*%
%ADD25R,1.800000X1.800000*%
%ADD26C,1.800000*%
G04 APERTURE END LIST*
D10*
%TO.C,C1*%
X158646174Y-70677142D02*
X158598555Y-70724761D01*
X158455698Y-70772380D01*
X158360460Y-70772380D01*
X158217602Y-70724761D01*
X158122364Y-70629523D01*
X158074745Y-70534285D01*
X158027126Y-70343809D01*
X158027126Y-70200952D01*
X158074745Y-70010476D01*
X158122364Y-69915238D01*
X158217602Y-69820000D01*
X158360460Y-69772380D01*
X158455698Y-69772380D01*
X158598555Y-69820000D01*
X158646174Y-69867619D01*
X159598555Y-70772380D02*
X159027126Y-70772380D01*
X159312841Y-70772380D02*
X159312841Y-69772380D01*
X159217602Y-69915238D01*
X159122364Y-70010476D01*
X159027126Y-70058095D01*
%TO.C,BAT1*%
X127214274Y-66322271D02*
X127357131Y-66369890D01*
X127404750Y-66417509D01*
X127452369Y-66512747D01*
X127452369Y-66655604D01*
X127404750Y-66750842D01*
X127357131Y-66798461D01*
X127261893Y-66846080D01*
X126880940Y-66846080D01*
X126880940Y-65846080D01*
X127214274Y-65846080D01*
X127309512Y-65893700D01*
X127357131Y-65941319D01*
X127404750Y-66036557D01*
X127404750Y-66131795D01*
X127357131Y-66227033D01*
X127309512Y-66274652D01*
X127214274Y-66322271D01*
X126880940Y-66322271D01*
X127833321Y-66560366D02*
X128309512Y-66560366D01*
X127738083Y-66846080D02*
X128071417Y-65846080D01*
X128404750Y-66846080D01*
X128595226Y-65846080D02*
X129166655Y-65846080D01*
X128880940Y-66846080D02*
X128880940Y-65846080D01*
X130023798Y-66846080D02*
X129452369Y-66846080D01*
X129738083Y-66846080D02*
X129738083Y-65846080D01*
X129642845Y-65988938D01*
X129547607Y-66084176D01*
X129452369Y-66131795D01*
%TO.C,S1*%
X118728095Y-90784761D02*
X118870952Y-90832380D01*
X119109047Y-90832380D01*
X119204285Y-90784761D01*
X119251904Y-90737142D01*
X119299523Y-90641904D01*
X119299523Y-90546666D01*
X119251904Y-90451428D01*
X119204285Y-90403809D01*
X119109047Y-90356190D01*
X118918571Y-90308571D01*
X118823333Y-90260952D01*
X118775714Y-90213333D01*
X118728095Y-90118095D01*
X118728095Y-90022857D01*
X118775714Y-89927619D01*
X118823333Y-89880000D01*
X118918571Y-89832380D01*
X119156666Y-89832380D01*
X119299523Y-89880000D01*
X120251904Y-90832380D02*
X119680476Y-90832380D01*
X119966190Y-90832380D02*
X119966190Y-89832380D01*
X119870952Y-89975238D01*
X119775714Y-90070476D01*
X119680476Y-90118095D01*
%TO.C,Q1*%
X168852361Y-66967619D02*
X168757123Y-66920000D01*
X168661885Y-66824761D01*
X168519028Y-66681904D01*
X168423790Y-66634285D01*
X168328552Y-66634285D01*
X168376171Y-66872380D02*
X168280933Y-66824761D01*
X168185695Y-66729523D01*
X168138076Y-66539047D01*
X168138076Y-66205714D01*
X168185695Y-66015238D01*
X168280933Y-65920000D01*
X168376171Y-65872380D01*
X168566647Y-65872380D01*
X168661885Y-65920000D01*
X168757123Y-66015238D01*
X168804742Y-66205714D01*
X168804742Y-66539047D01*
X168757123Y-66729523D01*
X168661885Y-66824761D01*
X168566647Y-66872380D01*
X168376171Y-66872380D01*
X169757123Y-66872380D02*
X169185695Y-66872380D01*
X169471409Y-66872380D02*
X169471409Y-65872380D01*
X169376171Y-66015238D01*
X169280933Y-66110476D01*
X169185695Y-66158095D01*
%TO.C,R2*%
X134780933Y-94812380D02*
X134447600Y-94336190D01*
X134209504Y-94812380D02*
X134209504Y-93812380D01*
X134590457Y-93812380D01*
X134685695Y-93860000D01*
X134733314Y-93907619D01*
X134780933Y-94002857D01*
X134780933Y-94145714D01*
X134733314Y-94240952D01*
X134685695Y-94288571D01*
X134590457Y-94336190D01*
X134209504Y-94336190D01*
X135161885Y-93907619D02*
X135209504Y-93860000D01*
X135304742Y-93812380D01*
X135542838Y-93812380D01*
X135638076Y-93860000D01*
X135685695Y-93907619D01*
X135733314Y-94002857D01*
X135733314Y-94098095D01*
X135685695Y-94240952D01*
X135114266Y-94812380D01*
X135733314Y-94812380D01*
%TO.C,U1*%
X148318695Y-65681380D02*
X148318695Y-66490904D01*
X148366314Y-66586142D01*
X148413933Y-66633761D01*
X148509171Y-66681380D01*
X148699647Y-66681380D01*
X148794885Y-66633761D01*
X148842504Y-66586142D01*
X148890123Y-66490904D01*
X148890123Y-65681380D01*
X149890123Y-66681380D02*
X149318695Y-66681380D01*
X149604409Y-66681380D02*
X149604409Y-65681380D01*
X149509171Y-65824238D01*
X149413933Y-65919476D01*
X149318695Y-65967095D01*
%TO.C,D1*%
X153309504Y-89302380D02*
X153309504Y-88302380D01*
X153547600Y-88302380D01*
X153690457Y-88350000D01*
X153785695Y-88445238D01*
X153833314Y-88540476D01*
X153880933Y-88730952D01*
X153880933Y-88873809D01*
X153833314Y-89064285D01*
X153785695Y-89159523D01*
X153690457Y-89254761D01*
X153547600Y-89302380D01*
X153309504Y-89302380D01*
X154833314Y-89302380D02*
X154261885Y-89302380D01*
X154547600Y-89302380D02*
X154547600Y-88302380D01*
X154452361Y-88445238D01*
X154357123Y-88540476D01*
X154261885Y-88588095D01*
%TO.C,C2*%
X156900708Y-78527142D02*
X156853089Y-78574761D01*
X156710232Y-78622380D01*
X156614994Y-78622380D01*
X156472136Y-78574761D01*
X156376898Y-78479523D01*
X156329279Y-78384285D01*
X156281660Y-78193809D01*
X156281660Y-78050952D01*
X156329279Y-77860476D01*
X156376898Y-77765238D01*
X156472136Y-77670000D01*
X156614994Y-77622380D01*
X156710232Y-77622380D01*
X156853089Y-77670000D01*
X156900708Y-77717619D01*
X157281660Y-77717619D02*
X157329279Y-77670000D01*
X157424517Y-77622380D01*
X157662613Y-77622380D01*
X157757851Y-77670000D01*
X157805470Y-77717619D01*
X157853089Y-77812857D01*
X157853089Y-77908095D01*
X157805470Y-78050952D01*
X157234041Y-78622380D01*
X157853089Y-78622380D01*
%TO.C,R5*%
X148150933Y-76992380D02*
X147817600Y-76516190D01*
X147579504Y-76992380D02*
X147579504Y-75992380D01*
X147960457Y-75992380D01*
X148055695Y-76040000D01*
X148103314Y-76087619D01*
X148150933Y-76182857D01*
X148150933Y-76325714D01*
X148103314Y-76420952D01*
X148055695Y-76468571D01*
X147960457Y-76516190D01*
X147579504Y-76516190D01*
X149055695Y-75992380D02*
X148579504Y-75992380D01*
X148531885Y-76468571D01*
X148579504Y-76420952D01*
X148674742Y-76373333D01*
X148912838Y-76373333D01*
X149008076Y-76420952D01*
X149055695Y-76468571D01*
X149103314Y-76563809D01*
X149103314Y-76801904D01*
X149055695Y-76897142D01*
X149008076Y-76944761D01*
X148912838Y-76992380D01*
X148674742Y-76992380D01*
X148579504Y-76944761D01*
X148531885Y-76897142D01*
%TO.C,R7*%
X159970933Y-66852380D02*
X159637600Y-66376190D01*
X159399504Y-66852380D02*
X159399504Y-65852380D01*
X159780457Y-65852380D01*
X159875695Y-65900000D01*
X159923314Y-65947619D01*
X159970933Y-66042857D01*
X159970933Y-66185714D01*
X159923314Y-66280952D01*
X159875695Y-66328571D01*
X159780457Y-66376190D01*
X159399504Y-66376190D01*
X160304266Y-65852380D02*
X160970933Y-65852380D01*
X160542361Y-66852380D01*
%TO.C,R1*%
X145550933Y-90762380D02*
X145217600Y-90286190D01*
X144979504Y-90762380D02*
X144979504Y-89762380D01*
X145360457Y-89762380D01*
X145455695Y-89810000D01*
X145503314Y-89857619D01*
X145550933Y-89952857D01*
X145550933Y-90095714D01*
X145503314Y-90190952D01*
X145455695Y-90238571D01*
X145360457Y-90286190D01*
X144979504Y-90286190D01*
X146503314Y-90762380D02*
X145931885Y-90762380D01*
X146217600Y-90762380D02*
X146217600Y-89762380D01*
X146122361Y-89905238D01*
X146027123Y-90000476D01*
X145931885Y-90048095D01*
%TO.C,R6*%
X148150933Y-85092380D02*
X147817600Y-84616190D01*
X147579504Y-85092380D02*
X147579504Y-84092380D01*
X147960457Y-84092380D01*
X148055695Y-84140000D01*
X148103314Y-84187619D01*
X148150933Y-84282857D01*
X148150933Y-84425714D01*
X148103314Y-84520952D01*
X148055695Y-84568571D01*
X147960457Y-84616190D01*
X147579504Y-84616190D01*
X149008076Y-84092380D02*
X148817600Y-84092380D01*
X148722361Y-84140000D01*
X148674742Y-84187619D01*
X148579504Y-84330476D01*
X148531885Y-84520952D01*
X148531885Y-84901904D01*
X148579504Y-84997142D01*
X148627123Y-85044761D01*
X148722361Y-85092380D01*
X148912838Y-85092380D01*
X149008076Y-85044761D01*
X149055695Y-84997142D01*
X149103314Y-84901904D01*
X149103314Y-84663809D01*
X149055695Y-84568571D01*
X149008076Y-84520952D01*
X148912838Y-84473333D01*
X148722361Y-84473333D01*
X148627123Y-84520952D01*
X148579504Y-84568571D01*
X148531885Y-84663809D01*
%TO.C,D2*%
X162539504Y-78912380D02*
X162539504Y-77912380D01*
X162777600Y-77912380D01*
X162920457Y-77960000D01*
X163015695Y-78055238D01*
X163063314Y-78150476D01*
X163110933Y-78340952D01*
X163110933Y-78483809D01*
X163063314Y-78674285D01*
X163015695Y-78769523D01*
X162920457Y-78864761D01*
X162777600Y-78912380D01*
X162539504Y-78912380D01*
X163491885Y-78007619D02*
X163539504Y-77960000D01*
X163634742Y-77912380D01*
X163872838Y-77912380D01*
X163968076Y-77960000D01*
X164015695Y-78007619D01*
X164063314Y-78102857D01*
X164063314Y-78198095D01*
X164015695Y-78340952D01*
X163444266Y-78912380D01*
X164063314Y-78912380D01*
%TO.C,R3*%
X134780933Y-90762380D02*
X134447600Y-90286190D01*
X134209504Y-90762380D02*
X134209504Y-89762380D01*
X134590457Y-89762380D01*
X134685695Y-89810000D01*
X134733314Y-89857619D01*
X134780933Y-89952857D01*
X134780933Y-90095714D01*
X134733314Y-90190952D01*
X134685695Y-90238571D01*
X134590457Y-90286190D01*
X134209504Y-90286190D01*
X135114266Y-89762380D02*
X135733314Y-89762380D01*
X135399980Y-90143333D01*
X135542838Y-90143333D01*
X135638076Y-90190952D01*
X135685695Y-90238571D01*
X135733314Y-90333809D01*
X135733314Y-90571904D01*
X135685695Y-90667142D01*
X135638076Y-90714761D01*
X135542838Y-90762380D01*
X135257123Y-90762380D01*
X135161885Y-90714761D01*
X135114266Y-90667142D01*
%TO.C,R4*%
X148150933Y-81042380D02*
X147817600Y-80566190D01*
X147579504Y-81042380D02*
X147579504Y-80042380D01*
X147960457Y-80042380D01*
X148055695Y-80090000D01*
X148103314Y-80137619D01*
X148150933Y-80232857D01*
X148150933Y-80375714D01*
X148103314Y-80470952D01*
X148055695Y-80518571D01*
X147960457Y-80566190D01*
X147579504Y-80566190D01*
X149008076Y-80375714D02*
X149008076Y-81042380D01*
X148769980Y-79994761D02*
X148531885Y-80709047D01*
X149150933Y-80709047D01*
D11*
%TO.C,C1*%
X160013841Y-71718000D02*
X160013841Y-73680000D01*
X159693841Y-75760000D02*
X159693841Y-77830000D01*
X161973841Y-73918000D02*
X161973841Y-75522000D01*
X160213841Y-71804000D02*
X160213841Y-73680000D01*
X161013841Y-72340000D02*
X161013841Y-73680000D01*
X159492841Y-75760000D02*
X159492841Y-77879000D01*
X161333841Y-72676000D02*
X161333841Y-76764000D01*
X160253841Y-75760000D02*
X160253841Y-77616000D01*
X160613841Y-75760000D02*
X160613841Y-77410000D01*
X159212841Y-75760000D02*
X159212841Y-77926000D01*
X159973841Y-75760000D02*
X159973841Y-77738000D01*
X161253841Y-72583000D02*
X161253841Y-76857000D01*
X160773841Y-75760000D02*
X160773841Y-77298000D01*
X161893841Y-73661000D02*
X161893841Y-75779000D01*
X159412841Y-75760000D02*
X159412841Y-77895000D01*
X161813841Y-73458000D02*
X161813841Y-75982000D01*
X160533841Y-75760000D02*
X160533841Y-77462000D01*
X159492841Y-71561000D02*
X159492841Y-73680000D01*
X160493841Y-71954000D02*
X160493841Y-73680000D01*
X159933841Y-75760000D02*
X159933841Y-77753000D01*
X159693841Y-71610000D02*
X159693841Y-73680000D01*
X160933841Y-75760000D02*
X160933841Y-77170000D01*
X162013841Y-74087000D02*
X162013841Y-75353000D01*
X160133841Y-71768000D02*
X160133841Y-73680000D01*
X161093841Y-75760000D02*
X161093841Y-77025000D01*
X159773841Y-71634000D02*
X159773841Y-73680000D01*
X159172841Y-71509000D02*
X159172841Y-73680000D01*
X161013841Y-75760000D02*
X161013841Y-77100000D01*
X160573841Y-72004000D02*
X160573841Y-73680000D01*
X160053841Y-71734000D02*
X160053841Y-73680000D01*
X159893841Y-75760000D02*
X159893841Y-77767000D01*
X159893841Y-71673000D02*
X159893841Y-73680000D01*
X159372841Y-75760000D02*
X159372841Y-77902000D01*
X160893841Y-72236000D02*
X160893841Y-73680000D01*
X159052841Y-71498000D02*
X159052841Y-73680000D01*
X159533841Y-75760000D02*
X159533841Y-77870000D01*
X160453841Y-71930000D02*
X160453841Y-73680000D01*
X159252841Y-71519000D02*
X159252841Y-73680000D01*
X160813841Y-72172000D02*
X160813841Y-73680000D01*
X160573841Y-75760000D02*
X160573841Y-77436000D01*
X159292841Y-71525000D02*
X159292841Y-73680000D01*
X155627600Y-72566000D02*
X155627600Y-73196000D01*
X160653841Y-75760000D02*
X160653841Y-77384000D01*
X159292841Y-75760000D02*
X159292841Y-77915000D01*
X160013841Y-75760000D02*
X160013841Y-77722000D01*
X161573841Y-73006000D02*
X161573841Y-76434000D01*
X161453841Y-72830000D02*
X161453841Y-76610000D01*
X160693841Y-75760000D02*
X160693841Y-77356000D01*
X158852841Y-71490000D02*
X158852841Y-77950000D01*
X159012841Y-71496000D02*
X159012841Y-77944000D01*
X159773841Y-75760000D02*
X159773841Y-77806000D01*
X160133841Y-75760000D02*
X160133841Y-77672000D01*
X159733841Y-75760000D02*
X159733841Y-77818000D01*
X160973841Y-75760000D02*
X160973841Y-77136000D01*
X158892841Y-71490000D02*
X158892841Y-77950000D01*
X161213841Y-72538000D02*
X161213841Y-76902000D01*
X161613841Y-73070000D02*
X161613841Y-76370000D01*
X159132841Y-71505000D02*
X159132841Y-73680000D01*
X159933841Y-71687000D02*
X159933841Y-73680000D01*
X160093841Y-71750000D02*
X160093841Y-73680000D01*
X160853841Y-75760000D02*
X160853841Y-77236000D01*
X161373841Y-72725000D02*
X161373841Y-76715000D01*
X159092841Y-71502000D02*
X159092841Y-73680000D01*
X159172841Y-75760000D02*
X159172841Y-77931000D01*
X159733841Y-71622000D02*
X159733841Y-73680000D01*
X161533841Y-72944000D02*
X161533841Y-76496000D01*
X160733841Y-72113000D02*
X160733841Y-73680000D01*
X161773841Y-73370000D02*
X161773841Y-76070000D01*
X160293841Y-71844000D02*
X160293841Y-73680000D01*
X161053841Y-72377000D02*
X161053841Y-73680000D01*
X159853841Y-75760000D02*
X159853841Y-77781000D01*
X159573841Y-71579000D02*
X159573841Y-73680000D01*
X159533841Y-71570000D02*
X159533841Y-73680000D01*
X161933841Y-73780000D02*
X161933841Y-75660000D01*
X159052841Y-75760000D02*
X159052841Y-77942000D01*
X160493841Y-75760000D02*
X160493841Y-77486000D01*
X160533841Y-71978000D02*
X160533841Y-73680000D01*
X160973841Y-72304000D02*
X160973841Y-73680000D01*
X160053841Y-75760000D02*
X160053841Y-77706000D01*
X159613841Y-71589000D02*
X159613841Y-73680000D01*
X159653841Y-75760000D02*
X159653841Y-77841000D01*
X161093841Y-72415000D02*
X161093841Y-73680000D01*
X160253841Y-71824000D02*
X160253841Y-73680000D01*
X160373841Y-75760000D02*
X160373841Y-77554000D01*
X160893841Y-75760000D02*
X160893841Y-77204000D01*
X160453841Y-75760000D02*
X160453841Y-77510000D01*
X160773841Y-72142000D02*
X160773841Y-73680000D01*
X161493841Y-72886000D02*
X161493841Y-76554000D01*
X158972841Y-71493000D02*
X158972841Y-77947000D01*
X159092841Y-75760000D02*
X159092841Y-77938000D01*
X159813841Y-75760000D02*
X159813841Y-77794000D01*
X159332841Y-75760000D02*
X159332841Y-77909000D01*
X160093841Y-75760000D02*
X160093841Y-77690000D01*
X160813841Y-75760000D02*
X160813841Y-77268000D01*
X159332841Y-71531000D02*
X159332841Y-73680000D01*
X159853841Y-71659000D02*
X159853841Y-73680000D01*
X161293841Y-72628000D02*
X161293841Y-76812000D01*
X160333841Y-71864000D02*
X160333841Y-73680000D01*
X160693841Y-72084000D02*
X160693841Y-73680000D01*
X160373841Y-71886000D02*
X160373841Y-73680000D01*
X155312600Y-72881000D02*
X155942600Y-72881000D01*
X160333841Y-75760000D02*
X160333841Y-77576000D01*
X159212841Y-71514000D02*
X159212841Y-73680000D01*
X160613841Y-72030000D02*
X160613841Y-73680000D01*
X159573841Y-75760000D02*
X159573841Y-77861000D01*
X159452841Y-75760000D02*
X159452841Y-77887000D01*
X160213841Y-75760000D02*
X160213841Y-77636000D01*
X161133841Y-72455000D02*
X161133841Y-76985000D01*
X159252841Y-75760000D02*
X159252841Y-77921000D01*
X159132841Y-75760000D02*
X159132841Y-77935000D01*
X159372841Y-71538000D02*
X159372841Y-73680000D01*
X161053841Y-75760000D02*
X161053841Y-77063000D01*
X160653841Y-72056000D02*
X160653841Y-73680000D01*
X160933841Y-72270000D02*
X160933841Y-73680000D01*
X159452841Y-71553000D02*
X159452841Y-73680000D01*
X160733841Y-75760000D02*
X160733841Y-77327000D01*
X160173841Y-75760000D02*
X160173841Y-77654000D01*
X159813841Y-71646000D02*
X159813841Y-73680000D01*
X161693841Y-73211000D02*
X161693841Y-76229000D01*
X160853841Y-72204000D02*
X160853841Y-73680000D01*
X158932841Y-71492000D02*
X158932841Y-77948000D01*
X162053841Y-74318000D02*
X162053841Y-75122000D01*
X160293841Y-75760000D02*
X160293841Y-77596000D01*
X159613841Y-75760000D02*
X159613841Y-77851000D01*
X159412841Y-71545000D02*
X159412841Y-73680000D01*
X160173841Y-71786000D02*
X160173841Y-73680000D01*
X161733841Y-73288000D02*
X161733841Y-76152000D01*
X159973841Y-71702000D02*
X159973841Y-73680000D01*
X161853841Y-73555000D02*
X161853841Y-75885000D01*
X160413841Y-75760000D02*
X160413841Y-77532000D01*
X158812841Y-71490000D02*
X158812841Y-77950000D01*
X161413841Y-72776000D02*
X161413841Y-76664000D01*
X161173841Y-72496000D02*
X161173841Y-76944000D01*
X159653841Y-71599000D02*
X159653841Y-73680000D01*
X161653841Y-73139000D02*
X161653841Y-76301000D01*
X160413841Y-71908000D02*
X160413841Y-73680000D01*
X162082841Y-74720000D02*
G75*
G03*
X162082841Y-74720000I-3270000J0D01*
G01*
D12*
%TO.C,BAT1*%
X141677200Y-82611600D02*
X141677200Y-79766800D01*
X138934000Y-82611600D02*
X141677200Y-82611600D01*
X141677200Y-74788400D02*
X141677200Y-77633200D01*
X138934000Y-74788400D02*
X141677200Y-74788400D01*
X139594400Y-78700000D02*
G75*
G03*
X139594400Y-78700000I-11226800J0D01*
G01*
%TO.C,S1*%
X113400000Y-91300000D02*
X113900000Y-91300000D01*
X125300000Y-91300000D02*
X125300000Y-91800000D01*
X113400000Y-91300000D02*
X113400000Y-91800000D01*
X125300000Y-95500000D02*
X124800000Y-95500000D01*
X125300000Y-91300000D02*
X124800000Y-91300000D01*
X125300000Y-95500000D02*
X125300000Y-95000000D01*
X113400000Y-95500000D02*
X113900000Y-95500000D01*
X113400000Y-95500000D02*
X113400000Y-95000000D01*
%TO.C,Q1*%
X171297600Y-71370000D02*
X171447600Y-71070000D01*
X171297600Y-71370000D02*
X170997600Y-71370000D01*
X166597600Y-71370000D02*
X166447600Y-71070000D01*
X166897600Y-71370000D02*
X166597600Y-71370000D01*
D10*
X170897600Y-68220000D02*
G75*
G03*
X167047600Y-68170000I-1950000J-1900000D01*
G01*
D11*
%TO.C,R2*%
X131677600Y-95690000D02*
X131677600Y-95360000D01*
X138217600Y-95360000D02*
X138217600Y-95690000D01*
X131677600Y-98100000D02*
X138217600Y-98100000D01*
X131677600Y-95360000D02*
X138217600Y-95360000D01*
X131677600Y-97770000D02*
X131677600Y-98100000D01*
X138217600Y-98100000D02*
X138217600Y-97770000D01*
D13*
%TO.C,U1*%
X154160600Y-75373000D02*
X154160600Y-68261000D01*
X144000600Y-75373000D02*
X144000600Y-68261000D01*
D14*
X143903600Y-75881000D02*
G75*
G03*
X143903600Y-75881000I-157000J0D01*
G01*
D11*
%TO.C,D1*%
X152487600Y-92890000D02*
X152487600Y-93046000D01*
X152487600Y-90574000D02*
X152487600Y-90730000D01*
X152487600Y-93045516D02*
G75*
G03*
X155719935Y-92888608I1560000J1235516D01*
G01*
X155719935Y-90731392D02*
G75*
G03*
X152487600Y-90574484I-1672335J-1078608D01*
G01*
X153006639Y-92890000D02*
G75*
G03*
X155088730Y-92889837I1040961J1080000D01*
G01*
X155088730Y-90730163D02*
G75*
G03*
X153006639Y-90730000I-1041130J-1079837D01*
G01*
%TO.C,C2*%
X157667375Y-79409000D02*
X157667375Y-80880000D01*
X158828375Y-80019000D02*
X158828375Y-80880000D01*
X158508375Y-79771000D02*
X158508375Y-80880000D01*
X157107375Y-82960000D02*
X157107375Y-84500000D01*
X157587375Y-79392000D02*
X157587375Y-80880000D01*
X158668375Y-82960000D02*
X158668375Y-83955000D01*
X159228375Y-80477000D02*
X159228375Y-83363000D01*
X159188375Y-80420000D02*
X159188375Y-83420000D01*
X159068375Y-82960000D02*
X159068375Y-83573000D01*
X158628375Y-79855000D02*
X158628375Y-80880000D01*
X158988375Y-80177000D02*
X158988375Y-80880000D01*
X158588375Y-82960000D02*
X158588375Y-84015000D01*
X158828375Y-82960000D02*
X158828375Y-83821000D01*
X158948375Y-82960000D02*
X158948375Y-83705000D01*
X158068375Y-82960000D02*
X158068375Y-84302000D01*
X157107375Y-79340000D02*
X157107375Y-80880000D01*
X157868375Y-82960000D02*
X157868375Y-84375000D01*
X157908375Y-79478000D02*
X157908375Y-80880000D01*
X159068375Y-80267000D02*
X159068375Y-80880000D01*
X158188375Y-79591000D02*
X158188375Y-80880000D01*
X157908375Y-82960000D02*
X157908375Y-84362000D01*
X157307375Y-79351000D02*
X157307375Y-80880000D01*
X157067375Y-82960000D02*
X157067375Y-84500000D01*
X158388375Y-82960000D02*
X158388375Y-84144000D01*
X158548375Y-82960000D02*
X158548375Y-84042000D01*
X158148375Y-79572000D02*
X158148375Y-80880000D01*
X159548375Y-81115000D02*
X159548375Y-82725000D01*
X157307375Y-82960000D02*
X157307375Y-84489000D01*
X159588375Y-81243000D02*
X159588375Y-82597000D01*
X157627375Y-82960000D02*
X157627375Y-84440000D01*
X157267375Y-82960000D02*
X157267375Y-84493000D01*
X157747375Y-79429000D02*
X157747375Y-80880000D01*
X158548375Y-79798000D02*
X158548375Y-80880000D01*
X157667375Y-82960000D02*
X157667375Y-84431000D01*
X158068375Y-79538000D02*
X158068375Y-80880000D01*
X158268375Y-82960000D02*
X158268375Y-84210000D01*
X157788375Y-82960000D02*
X157788375Y-84400000D01*
X157467375Y-79370000D02*
X157467375Y-80880000D01*
X159468375Y-80909000D02*
X159468375Y-82931000D01*
X157387375Y-79359000D02*
X157387375Y-80880000D01*
X158788375Y-79983000D02*
X158788375Y-80880000D01*
X159028375Y-80221000D02*
X159028375Y-80880000D01*
X157707375Y-82960000D02*
X157707375Y-84421000D01*
X159348375Y-80669000D02*
X159348375Y-83171000D01*
X159668375Y-81636000D02*
X159668375Y-82204000D01*
X157427375Y-79364000D02*
X157427375Y-80880000D01*
X157507375Y-79377000D02*
X157507375Y-80880000D01*
X158748375Y-79949000D02*
X158748375Y-80880000D01*
X158348375Y-82960000D02*
X158348375Y-84167000D01*
X157747375Y-82960000D02*
X157747375Y-84411000D01*
X159308375Y-80601000D02*
X159308375Y-83239000D01*
X157067375Y-79340000D02*
X157067375Y-80880000D01*
X158228375Y-82960000D02*
X158228375Y-84230000D01*
X158108375Y-82960000D02*
X158108375Y-84285000D01*
X158348375Y-79673000D02*
X158348375Y-80880000D01*
X158228375Y-79610000D02*
X158228375Y-80880000D01*
X158948375Y-80135000D02*
X158948375Y-80880000D01*
X157707375Y-79419000D02*
X157707375Y-80880000D01*
X157627375Y-79400000D02*
X157627375Y-80880000D01*
X158868375Y-82960000D02*
X158868375Y-83784000D01*
X158308375Y-82960000D02*
X158308375Y-84188000D01*
X158028375Y-79522000D02*
X158028375Y-80880000D01*
X154512600Y-80195000D02*
X154512600Y-80695000D01*
X158748375Y-82960000D02*
X158748375Y-83891000D01*
X158148375Y-82960000D02*
X158148375Y-84268000D01*
X159428375Y-80822000D02*
X159428375Y-83018000D01*
X158428375Y-82960000D02*
X158428375Y-84120000D01*
X157467375Y-82960000D02*
X157467375Y-84470000D01*
X158708375Y-79916000D02*
X158708375Y-80880000D01*
X157507375Y-82960000D02*
X157507375Y-84463000D01*
X157267375Y-79347000D02*
X157267375Y-80880000D01*
X159388375Y-80742000D02*
X159388375Y-83098000D01*
X157788375Y-79440000D02*
X157788375Y-80880000D01*
X158668375Y-79885000D02*
X158668375Y-80880000D01*
X158628375Y-82960000D02*
X158628375Y-83985000D01*
X157547375Y-82960000D02*
X157547375Y-84456000D01*
X157868375Y-79465000D02*
X157868375Y-80880000D01*
X158588375Y-79825000D02*
X158588375Y-80880000D01*
X157828375Y-82960000D02*
X157828375Y-84388000D01*
X158388375Y-79696000D02*
X158388375Y-80880000D01*
X157948375Y-82960000D02*
X157948375Y-84348000D01*
X157988375Y-82960000D02*
X157988375Y-84334000D01*
X159148375Y-80366000D02*
X159148375Y-83474000D01*
X158868375Y-80056000D02*
X158868375Y-80880000D01*
X158988375Y-82960000D02*
X158988375Y-83663000D01*
X158708375Y-82960000D02*
X158708375Y-83924000D01*
X158468375Y-79745000D02*
X158468375Y-80880000D01*
X157347375Y-79355000D02*
X157347375Y-80880000D01*
X159108375Y-80315000D02*
X159108375Y-83525000D01*
X159508375Y-81005000D02*
X159508375Y-82835000D01*
X157227375Y-82960000D02*
X157227375Y-84496000D01*
X159268375Y-80537000D02*
X159268375Y-83303000D01*
X159628375Y-81402000D02*
X159628375Y-82438000D01*
X157547375Y-79384000D02*
X157547375Y-80880000D01*
X158108375Y-79555000D02*
X158108375Y-80880000D01*
X158788375Y-82960000D02*
X158788375Y-83857000D01*
X157187375Y-82960000D02*
X157187375Y-84498000D01*
X158268375Y-79630000D02*
X158268375Y-80880000D01*
X158908375Y-82960000D02*
X158908375Y-83746000D01*
X159028375Y-82960000D02*
X159028375Y-83619000D01*
X158028375Y-82960000D02*
X158028375Y-84318000D01*
X158908375Y-80094000D02*
X158908375Y-80880000D01*
X158308375Y-79652000D02*
X158308375Y-80880000D01*
X157227375Y-79344000D02*
X157227375Y-80880000D01*
X157347375Y-82960000D02*
X157347375Y-84485000D01*
X158188375Y-82960000D02*
X158188375Y-84249000D01*
X157988375Y-79506000D02*
X157988375Y-80880000D01*
X154262600Y-80445000D02*
X154762600Y-80445000D01*
X157587375Y-82960000D02*
X157587375Y-84448000D01*
X158508375Y-82960000D02*
X158508375Y-84069000D01*
X157187375Y-79342000D02*
X157187375Y-80880000D01*
X158428375Y-79720000D02*
X158428375Y-80880000D01*
X157147375Y-82960000D02*
X157147375Y-84499000D01*
X157427375Y-82960000D02*
X157427375Y-84476000D01*
X157948375Y-79492000D02*
X157948375Y-80880000D01*
X157387375Y-82960000D02*
X157387375Y-84481000D01*
X157147375Y-79341000D02*
X157147375Y-80880000D01*
X158468375Y-82960000D02*
X158468375Y-84095000D01*
X157828375Y-79452000D02*
X157828375Y-80880000D01*
X159687375Y-81920000D02*
G75*
G03*
X159687375Y-81920000I-2620000J0D01*
G01*
%TO.C,R5*%
X151587600Y-80280000D02*
X151587600Y-79950000D01*
X151587600Y-77540000D02*
X151587600Y-77870000D01*
X145047600Y-79950000D02*
X145047600Y-80280000D01*
X145047600Y-77870000D02*
X145047600Y-77540000D01*
X145047600Y-77540000D02*
X151587600Y-77540000D01*
X145047600Y-80280000D02*
X151587600Y-80280000D01*
%TO.C,R7*%
X163407600Y-70140000D02*
X163407600Y-69810000D01*
X163407600Y-67400000D02*
X163407600Y-67730000D01*
X156867600Y-70140000D02*
X163407600Y-70140000D01*
X156867600Y-67400000D02*
X163407600Y-67400000D01*
X156867600Y-67730000D02*
X156867600Y-67400000D01*
X156867600Y-69810000D02*
X156867600Y-70140000D01*
%TO.C,R1*%
X148987600Y-91310000D02*
X148987600Y-91640000D01*
X142447600Y-91310000D02*
X148987600Y-91310000D01*
X142447600Y-94050000D02*
X148987600Y-94050000D01*
X142447600Y-93720000D02*
X142447600Y-94050000D01*
X148987600Y-94050000D02*
X148987600Y-93720000D01*
X142447600Y-91640000D02*
X142447600Y-91310000D01*
%TO.C,R6*%
X145047600Y-88050000D02*
X145047600Y-88380000D01*
X145047600Y-85640000D02*
X151587600Y-85640000D01*
X151587600Y-85640000D02*
X151587600Y-85970000D01*
X151587600Y-88380000D02*
X151587600Y-88050000D01*
X145047600Y-88380000D02*
X151587600Y-88380000D01*
X145047600Y-85970000D02*
X145047600Y-85640000D01*
%TO.C,D2*%
X161717600Y-82500000D02*
X161717600Y-82656000D01*
X161717600Y-80184000D02*
X161717600Y-80340000D01*
X161717600Y-82655516D02*
G75*
G03*
X164949935Y-82498608I1560000J1235516D01*
G01*
X164949935Y-80341392D02*
G75*
G03*
X161717600Y-80184484I-1672335J-1078608D01*
G01*
X164318730Y-80340163D02*
G75*
G03*
X162236639Y-80340000I-1041130J-1079837D01*
G01*
X162236639Y-82500000D02*
G75*
G03*
X164318730Y-82499837I1040961J1080000D01*
G01*
%TO.C,R3*%
X131677600Y-94050000D02*
X138217600Y-94050000D01*
X138217600Y-91310000D02*
X138217600Y-91640000D01*
X131677600Y-91310000D02*
X138217600Y-91310000D01*
X131677600Y-91640000D02*
X131677600Y-91310000D01*
X138217600Y-94050000D02*
X138217600Y-93720000D01*
X131677600Y-93720000D02*
X131677600Y-94050000D01*
%TO.C,R4*%
X151587600Y-84330000D02*
X151587600Y-84000000D01*
X145047600Y-81590000D02*
X151587600Y-81590000D01*
X145047600Y-81920000D02*
X145047600Y-81590000D01*
X145047600Y-84330000D02*
X151587600Y-84330000D01*
X151587600Y-81590000D02*
X151587600Y-81920000D01*
X145047600Y-84000000D02*
X145047600Y-84330000D01*
%TD*%
%LPC*%
D15*
%TO.C,C1*%
X157562841Y-74720000D03*
D16*
X160062841Y-74720000D03*
%TD*%
D17*
%TO.C,BAT1*%
X120900000Y-78700000D03*
D18*
X140900000Y-78700000D03*
%TD*%
D19*
%TO.C,S1*%
X117000000Y-93400000D03*
D20*
X119500000Y-93400000D03*
X122000000Y-93400000D03*
%TD*%
D21*
%TO.C,Q1*%
X167677600Y-69770000D03*
D22*
X168947600Y-69770000D03*
X170217600Y-69770000D03*
%TD*%
D16*
%TO.C,R2*%
X131137600Y-96730000D03*
D23*
X138757600Y-96730000D03*
%TD*%
D24*
%TO.C,U1*%
X145270600Y-75627000D03*
X147810600Y-75627000D03*
X150350600Y-75627000D03*
X152890600Y-75627000D03*
X152890600Y-68007000D03*
X150350600Y-68007000D03*
X147810600Y-68007000D03*
X145270600Y-68007000D03*
%TD*%
D25*
%TO.C,D1*%
X152777600Y-91810000D03*
D26*
X155317600Y-91810000D03*
%TD*%
D15*
%TO.C,C2*%
X156067375Y-81920000D03*
D16*
X158067375Y-81920000D03*
%TD*%
%TO.C,R5*%
X144507600Y-78910000D03*
D23*
X152127600Y-78910000D03*
%TD*%
D16*
%TO.C,R7*%
X156327600Y-68770000D03*
D23*
X163947600Y-68770000D03*
%TD*%
D16*
%TO.C,R1*%
X141907600Y-92680000D03*
D23*
X149527600Y-92680000D03*
%TD*%
D16*
%TO.C,R6*%
X144507600Y-87010000D03*
D23*
X152127600Y-87010000D03*
%TD*%
D25*
%TO.C,D2*%
X162007600Y-81420000D03*
D26*
X164547600Y-81420000D03*
%TD*%
D16*
%TO.C,R3*%
X131137600Y-92680000D03*
D23*
X138757600Y-92680000D03*
%TD*%
D16*
%TO.C,R4*%
X144507600Y-82960000D03*
D23*
X152127600Y-82960000D03*
%TD*%
M02*
